<?xml version="1.0" encoding="UTF-8" standalone="no"?>
<svg xmlns:dc="http://purl.org/dc/elements/1.1/" xmlns:cc="http://creativecommons.org/ns#" xmlns:rdf="http://www.w3.org/1999/02/22-rdf-syntax-ns#" xmlns:svg="http://www.w3.org/2000/svg" xmlns="http://www.w3.org/2000/svg" version="1.1" id="svg7404" viewBox="0 0 1031 620.2" height="175.1mm" width="291mm">
  <defs id="defs7406" />
  <metadata id="metadata7409">
    <rdf:RDF>
      <cc:Work rdf:about="">
        <dc:format>image/svg+xml</dc:format>
        <dc:type rdf:resource="http://purl.org/dc/dcmitype/StillImage" />
        <dc:title></dc:title>
      </cc:Work>
    </rdf:RDF>
  </metadata>
  <g transform="translate(0,-5.225)" id="layer1">
    <path transform="matrix(0.4397,0.8981,-0.8981,0.4397,862.6,-328.1)" d="m 438,260.2 -36.5,-12.4 -30.8,23 0.5,-38.5 -31.4,-22.2 36.7,-11.4 11.4,-36.7 22.3,31.4 38.4,-0.5 -23,30.8 z" id="path8176" style="opacity:1;fill:#cce4e0;fill-opacity:1;stroke:none;stroke-width:1;stroke-linecap:butt;stroke-linejoin:round;stroke-miterlimit:4;stroke-dasharray:none;stroke-opacity:1" />
    <path transform="matrix(0.4397,0.8981,-0.8981,0.4397,862.6,-328.1)" d="m 528.8,435.7 -42,-14.2 -35.5,26.5 0.5,-44.3 -36.1,-25.6 42.3,-13.2 13.2,-42.3 25.6,36.2 44.3,-0.6 -26.5,35.5 z" id="path8180" style="opacity:1;fill:#cce4e0;fill-opacity:1;stroke:none;stroke-width:1;stroke-linecap:butt;stroke-linejoin:round;stroke-miterlimit:4;stroke-dasharray:none;stroke-opacity:1" />
    <path transform="matrix(0.4397,0.8981,-0.8981,0.4397,282.4,-314.1)" d="m 546.1,280.3 -24.4,-16.3 -27.3,10.9 7.9,-28.3 -18.7,-22.6 29.3,-1.2 15.7,-24.8 10.2,27.6 28.5,7.2 -23.1,18.2 z" id="path8182" style="opacity:1;fill:#cce4e0;fill-opacity:1;stroke:none;stroke-width:1;stroke-linecap:butt;stroke-linejoin:round;stroke-miterlimit:4;stroke-dasharray:none;stroke-opacity:1" />
    <path transform="matrix(0.4397,0.8981,-0.8981,0.4397,442,69)" d="M 297.9,64.72 276.1,57.35 257.7,71.08 258,48.11 239.2,34.85 261.2,28.02 268,6.096 281.3,24.85 304.2,24.56 290.5,42.97 Z" id="path8186" style="opacity:1;fill:#cce4e0;fill-opacity:1;stroke:none;stroke-width:1;stroke-linecap:butt;stroke-linejoin:round;stroke-miterlimit:4;stroke-dasharray:none;stroke-opacity:1" />
    <path transform="matrix(0.4397,0.8981,-0.8981,0.4397,962.2,291)" d="M 109.1,77.77 90.21,71.39 74.25,83.29 74.49,63.37 58.24,51.87 77.26,45.94 83.18,26.93 94.69,43.19 114.6,42.94 102.7,58.91 Z" id="path8188" style="opacity:1;fill:#cce4e0;fill-opacity:1;stroke:none;stroke-width:1;stroke-linecap:butt;stroke-linejoin:round;stroke-miterlimit:4;stroke-dasharray:none;stroke-opacity:1" />
    <path transform="matrix(0.4397,0.8981,-0.8981,0.4397,309.1,291.2)" d="m 85.42,266.7 -15.56,-1 -9.65,12.3 -3.85,-15.1 -14.61,-5.4 13.17,-8.4 0.62,-15.5 11.99,9.9 15,-4.2 -5.76,14.5 z" id="path8190" style="opacity:1;fill:#cce4e0;fill-opacity:1;stroke:none;stroke-width:1;stroke-linecap:butt;stroke-linejoin:round;stroke-miterlimit:4;stroke-dasharray:none;stroke-opacity:1" />
    <path transform="matrix(0.4397,0.8981,-0.8981,0.4397,962.2,291)" d="m 99.61,154.9 -12.97,-8.6 -14.47,5.7 4.22,-15 -9.96,-11.9 15.57,-0.7 8.32,-13.1 5.41,14.6 15.07,3.8 -12.21,9.7 z" id="path8192" style="opacity:1;fill:#cce4e0;fill-opacity:1;stroke:none;stroke-width:1;stroke-linecap:butt;stroke-linejoin:round;stroke-miterlimit:4;stroke-dasharray:none;stroke-opacity:1" />
    <path transform="matrix(0.4397,0.8981,-0.8981,0.4397,889.3,197.2)" d="m 99.35,357.6 -13.11,-4.4 -11.09,8.3 0.17,-13.9 -11.29,-8 13.21,-4.1 4.11,-13.2 7.99,11.3 13.86,-0.2 -8.3,11.1 z" id="path8194" style="opacity:1;fill:#cce4e0;fill-opacity:1;stroke:none;stroke-width:1;stroke-linecap:butt;stroke-linejoin:round;stroke-miterlimit:4;stroke-dasharray:none;stroke-opacity:1" />
    <path id="path8051" d="m 647.9,11.38 -53.6,15.18 48.9,58.34 39,-32.49 -34.3,-41.03 z" style="fill:#78feff;fill-opacity:1;fill-rule:evenodd;stroke:none;stroke-width:1.058px;stroke-linecap:butt;stroke-linejoin:miter;stroke-opacity:1" />
    <path id="path8056" d="m 681.5,51.53 -38.9,32.6 48.8,58.47 24.4,-50.03 -34.3,-41.04 z" style="fill:#0161fe;fill-opacity:1;fill-rule:evenodd;stroke:none;stroke-width:1.058px;stroke-linecap:butt;stroke-linejoin:miter;stroke-opacity:1" />
    <path id="path8058" d="M 594.5,26.15 570,76.77 604.2,117.7 643.4,84.8 594.5,26.15 Z" style="fill:#03b3f7;fill-opacity:1;fill-rule:evenodd;stroke:none;stroke-width:1.058px;stroke-linecap:butt;stroke-linejoin:miter;stroke-opacity:1" />
    <path id="path8060" d="m 642.7,83.92 -39.2,32.88 34.4,41.1 53.8,-15.3 -49,-58.68 z" style="fill:#04bdf7;fill-opacity:1;fill-rule:evenodd;stroke:none;stroke-width:1.058px;stroke-linecap:butt;stroke-linejoin:miter;stroke-opacity:1" />
    <path id="path8045" d="M 671.8,39.87 622.7,60.46 662.9,108.4 693.2,65.62 671.8,39.87 Z" style="fill:#08b5fd;fill-opacity:1;fill-rule:evenodd;stroke:none;stroke-width:1.058px;stroke-linecap:butt;stroke-linejoin:miter;stroke-opacity:1" />
    <path id="path8047" d="M 623.1,60.44 594.6,104.5 616.1,130.1 663,108 623.1,60.44 Z" style="fill:#026bfe;fill-opacity:1;fill-rule:evenodd;stroke:none;stroke-width:1.058px;stroke-linecap:butt;stroke-linejoin:miter;stroke-opacity:1" />
    <path id="path8105" d="M 553.6,91.87 588.1,133.1 26.97,602.8 10.44,582.9 Z" style="opacity:1;fill:#c87e09;fill-opacity:1;stroke:none;stroke-width:0.9068;stroke-linecap:butt;stroke-linejoin:round;stroke-miterlimit:4;stroke-dasharray:none;stroke-opacity:1" />
    <path style="opacity:1;fill:#884233;fill-opacity:1;stroke:none;stroke-width:0.9068;stroke-linecap:butt;stroke-linejoin:round;stroke-miterlimit:4;stroke-dasharray:none;stroke-opacity:1" d="M 619.7,170.9 585.2,129.8 24.17,599.4 40.67,619.1 Z" id="path8107" />
    <path id="path8114" d="m 504,216.1 c -3.4,-4.2 -10.3,-9.6 -22.7,-12.5 -22.4,-4.9 -36.5,19.6 -36.5,19.6 0,0 26.5,58.3 -21.7,98.6 -2.8,2.3 -5.8,4.2 -8.7,5.6 l -83.9,65.1 c 30.7,13.8 71.5,20.6 117.4,-17.8 72.8,-60.9 59.7,-152.8 59.7,-152.8 0,0 -0.7,-2.5 -3.6,-5.8 z m -196.1,97.8 c -32.8,-8.2 -66.3,-11 -94.7,12.8 -66.6,55.8 -16.2,131.6 -15.8,160.4 0.5,28.9 -24.5,30.3 -24.5,30.3 0,0 8,12.9 28.9,6.3 20.9,-6.4 22.1,-36.6 23.6,-96.2 -0.4,-18.1 -4.3,-35.8 2.7,-41.6 z" style="fill:#5e8b21;fill-opacity:1;fill-rule:evenodd;stroke:none;stroke-width:1px;stroke-linecap:butt;stroke-linejoin:miter;stroke-opacity:1" />
    <path id="path8116" d="m 504,216.1 c -3.4,-4.2 -10.3,-9.6 -22.7,-12.5 -2.8,-0.5 -5.6,-0.7 -8.1,-0.5 2.5,6.3 4.3,11.7 5.2,15.5 6.2,25.5 5.6,92.7 -34.6,126.2 -17.3,14.3 -43.2,16.5 -69.5,13.8 l -43.8,33.9 c 30.7,13.8 71.5,20.6 117.4,-17.8 72.8,-60.9 59.7,-152.8 59.7,-152.8 0,0 -0.7,-2.5 -3.6,-5.8 z M 278.1,340.9 c -28.7,-1.2 -50.8,10.5 -65.6,28 -16,19.1 -3.9,70.1 -4.9,98.7 -1.1,28 6.8,46 -34,50.8 2.6,3 11,10.7 28.2,5.3 20.9,-6.4 22.1,-36.6 23.6,-96.2 -0.4,-18.1 -2.8,-37 2.7,-41.6 z" style="fill:#8bcd31;fill-opacity:1;fill-rule:evenodd;stroke:none;stroke-width:1px;stroke-linecap:butt;stroke-linejoin:miter;stroke-opacity:1" />
    <ellipse transform="matrix(0.4965,0.868,-0.9673,0.2535,0,0)" ry="30.53" rx="21.65" cy="-313.9" cx="347.3" id="path8148" style="opacity:1;fill:#76ae2a;fill-opacity:1;stroke:none;stroke-width:0.7494;stroke-linecap:butt;stroke-linejoin:round;stroke-miterlimit:4;stroke-dasharray:none;stroke-opacity:1" />
    <ellipse transform="matrix(0.6419,0.7668,-0.7668,0.6419,0,0)" ry="10.8" rx="9.596" cy="-220.4" cx="482.1" id="path8150" style="opacity:0.851;fill:#ffffff;fill-opacity:1;stroke:none;stroke-width:1;stroke-linecap:butt;stroke-linejoin:round;stroke-miterlimit:4;stroke-dasharray:none;stroke-opacity:1" />
    <ellipse transform="matrix(0.6419,0.7668,-0.7668,0.6419,0,0)" style="opacity:1;fill:#ffffff;fill-opacity:1;stroke:none;stroke-width:0.7523;stroke-linecap:butt;stroke-linejoin:round;stroke-miterlimit:4;stroke-dasharray:none;stroke-opacity:1" id="ellipse8152" cx="445.6" cy="-442.9" rx="6.699" ry="7.54" />
    <path id="path8038" d="m 550.5,161.9 3,-72.23 34.4,41.03 34.4,40.8 z" style="opacity:1;fill:#7d3d2f;fill-opacity:1;stroke:none;stroke-width:0.861;stroke-linecap:butt;stroke-linejoin:round;stroke-miterlimit:4;stroke-dasharray:none;stroke-opacity:1" />
    <rect transform="matrix(0.6419,0.7668,-0.7668,0.6419,0,0)" y="-389.2" x="424" height="22.11" width="55.42" id="rect8041" style="opacity:1;fill:#9caa94;fill-opacity:1;stroke:none;stroke-width:1;stroke-linecap:butt;stroke-linejoin:round;stroke-miterlimit:4;stroke-dasharray:none;stroke-opacity:1" />
    <rect transform="matrix(0.6419,0.7668,-0.7668,0.6419,0,0)" style="opacity:1;fill:#738b87;fill-opacity:1;stroke:none;stroke-width:1;stroke-linecap:butt;stroke-linejoin:round;stroke-miterlimit:4;stroke-dasharray:none;stroke-opacity:1" id="rect8043" width="55.42" height="22.11" x="475.7" y="-389.2" />
  </g>
</svg>
